<?xml version="1.0" encoding="UTF-8" standalone="no"?>
<svg
   xmlns:dc="http://purl.org/dc/elements/1.1/"
   xmlns:cc="http://creativecommons.org/ns#"
   xmlns:rdf="http://www.w3.org/1999/02/22-rdf-syntax-ns#"
   xmlns:svg="http://www.w3.org/2000/svg"
   xmlns="http://www.w3.org/2000/svg"
   xmlns:sodipodi="http://sodipodi.sourceforge.net/DTD/sodipodi-0.dtd"
   xmlns:inkscape="http://www.inkscape.org/namespaces/inkscape"
   inkscape:version="1.0 (4035a4fb49, 2020-05-01)"
   sodipodi:docname="email-bw.svg"
   id="svg30"
   version="1.1"
   width="448pt"
   viewBox="0 0 448 448"
   height="448pt">
  <metadata
     id="metadata36">
    <rdf:RDF>
      <cc:Work
         rdf:about="">
        <dc:format>image/svg+xml</dc:format>
        <dc:type
           rdf:resource="http://purl.org/dc/dcmitype/StillImage" />
      </cc:Work>
    </rdf:RDF>
  </metadata>
  <defs
     id="defs34" />
  <sodipodi:namedview
     inkscape:current-layer="svg30"
     inkscape:window-maximized="1"
     inkscape:window-y="-10"
     inkscape:window-x="-10"
     inkscape:cy="295.97598"
     inkscape:cx="298.66667"
     inkscape:zoom="1.3007813"
     showgrid="false"
     id="namedview32"
     inkscape:window-height="989"
     inkscape:window-width="1920"
     inkscape:pageshadow="2"
     inkscape:pageopacity="0"
     guidetolerance="10"
     gridtolerance="10"
     objecttolerance="10"
     borderopacity="1"
     bordercolor="#666666"
     pagecolor="#ffffff" />
  <path
     id="path24"
     d="m314.375 144h-180.75l90.375 77.464844zm0 0" />
  <path
     id="path26"
     d="m224 240c-1.910156 0-3.757812-.683594-5.207031-1.929688l-98.792969-84.679687v150.609375h208v-150.609375l-98.792969 84.679687c-1.449219 1.246094-3.296875 1.929688-5.207031 1.929688zm0 0" />
  <path
     id="path28"
     d="m224 0c-123.710938 0-224 100.289062-224 224s100.289062 224 224 224 224-100.289062 224-224c-.140625-123.652344-100.347656-223.859375-224-224zm120 312c0 4.417969-3.582031 8-8 8h-224c-4.417969 0-8-3.582031-8-8v-176c0-4.417969 3.582031-8 8-8h224c4.417969 0 8 3.582031 8 8zm0 0" />
  <path
     transform="scale(0.75000003)"
     id="path38"
     d="m 147.6036,425.95619 c -3.30582,-0.80657 -5.37991,-2.28119 -7.02156,-4.9921 -1.38442,-2.28615 -1.43489,-6.58793 -1.43489,-122.29742 0,-116.1422 0.0457,-120.00351 1.44954,-122.32223 0.79725,-1.31686 2.52698,-3.04659 3.84385,-3.84384 2.32442,-1.40724 6.82559,-1.44955 154.22613,-1.44955 147.40054,0 151.90171,0.0423 154.22613,1.44955 1.31686,0.79725 3.04659,2.52698 3.84384,3.84384 1.40379,2.31872 1.44955,6.18003 1.44955,122.32223 0,116.14219 -0.0457,120.0035 -1.44955,122.32222 -0.79725,1.31687 -2.52698,3.0466 -3.84384,3.84385 -2.32241,1.40601 -6.90732,1.45309 -152.6886,1.56786 -82.66186,0.065 -151.33213,-0.13492 -152.6006,-0.44441 z M 437.81381,305.2012 c 0,-55.38979 -0.25946,-100.70856 -0.57657,-100.70838 -0.31712,1.7e-4 -30.40998,25.57188 -66.87303,56.82601 -42.77356,36.66316 -67.25464,57.14193 -68.997,57.71696 -2.0478,0.67583 -3.35329,0.67583 -5.40109,0 -1.74235,-0.57503 -26.22343,-21.0538 -68.997,-57.71696 -36.46304,-31.25413 -66.55591,-56.82584 -66.87302,-56.82601 -0.31712,-1.8e-4 -0.57658,45.31859 -0.57658,100.70838 V 405.90991 H 298.66667 437.81381 Z M 359.2715,244.03777 c 32.83911,-28.14319 59.82279,-51.49454 59.96373,-51.89189 0.15919,-0.44878 -45.51323,-0.72246 -120.56856,-0.72246 -68.60314,0 -120.71407,0.29035 -120.56857,0.67178 0.47084,1.23432 119.40004,102.99497 120.44067,103.05392 0.56389,0.032 27.89362,-22.96816 60.73273,-51.11135 z"
     style="fill:#ffffff;stroke-width:0.768769" />
</svg>
