<?xml version="1.0" encoding="UTF-8" standalone="no"?>
<svg
   xmlns:dc="http://purl.org/dc/elements/1.1/"
   xmlns:cc="http://creativecommons.org/ns#"
   xmlns:rdf="http://www.w3.org/1999/02/22-rdf-syntax-ns#"
   xmlns:svg="http://www.w3.org/2000/svg"
   xmlns="http://www.w3.org/2000/svg"
   xmlns:sodipodi="http://sodipodi.sourceforge.net/DTD/sodipodi-0.dtd"
   xmlns:inkscape="http://www.inkscape.org/namespaces/inkscape"
   inkscape:version="1.0 (4035a4fb49, 2020-05-01)"
   sodipodi:docname="instagram2-bw.svg"
   id="svg80"
   version="1.1"
   width="512pt"
   viewBox="0 0 512 512"
   height="512pt">
  <metadata
     id="metadata86">
    <rdf:RDF>
      <cc:Work
         rdf:about="">
        <dc:format>image/svg+xml</dc:format>
        <dc:type
           rdf:resource="http://purl.org/dc/dcmitype/StillImage" />
      </cc:Work>
    </rdf:RDF>
  </metadata>
  <defs
     id="defs84" />
  <sodipodi:namedview
     inkscape:current-layer="svg80"
     inkscape:window-maximized="1"
     inkscape:window-y="-10"
     inkscape:window-x="-10"
     inkscape:cy="338.38354"
     inkscape:cx="341.33333"
     inkscape:zoom="1.1865234"
     showgrid="false"
     id="namedview82"
     inkscape:window-height="989"
     inkscape:window-width="1920"
     inkscape:pageshadow="2"
     inkscape:pageopacity="0"
     guidetolerance="10"
     gridtolerance="10"
     objecttolerance="10"
     borderopacity="1"
     bordercolor="#666666"
     pagecolor="#ffffff" />
  <path
     id="path74"
     d="m305 256c0 27.0625-21.9375 49-49 49s-49-21.9375-49-49 21.9375-49 49-49 49 21.9375 49 49zm0 0" />
  <path
     id="path76"
     d="m370.59375 169.304688c-2.355469-6.382813-6.113281-12.160157-10.996094-16.902344-4.742187-4.882813-10.515625-8.640625-16.902344-10.996094-5.179687-2.011719-12.960937-4.40625-27.292968-5.058594-15.503906-.707031-20.152344-.859375-59.402344-.859375-39.253906 0-43.902344.148438-59.402344.855469-14.332031.65625-22.117187 3.050781-27.292968 5.0625-6.386719 2.355469-12.164063 6.113281-16.902344 10.996094-4.882813 4.742187-8.640625 10.515625-11 16.902344-2.011719 5.179687-4.40625 12.964843-5.058594 27.296874-.707031 15.5-.859375 20.148438-.859375 59.402344 0 39.25.152344 43.898438.859375 59.402344.652344 14.332031 3.046875 22.113281 5.058594 27.292969 2.359375 6.386719 6.113281 12.160156 10.996094 16.902343 4.742187 4.882813 10.515624 8.640626 16.902343 10.996094 5.179688 2.015625 12.964844 4.410156 27.296875 5.0625 15.5.707032 20.144532.855469 59.398438.855469 39.257812 0 43.90625-.148437 59.402344-.855469 14.332031-.652344 22.117187-3.046875 27.296874-5.0625 12.820313-4.945312 22.953126-15.078125 27.898438-27.898437 2.011719-5.179688 4.40625-12.960938 5.0625-27.292969.707031-15.503906.855469-20.152344.855469-59.402344 0-39.253906-.148438-43.902344-.855469-59.402344-.652344-14.332031-3.046875-22.117187-5.0625-27.296874zm-114.59375 162.179687c-41.691406 0-75.488281-33.792969-75.488281-75.484375s33.796875-75.484375 75.488281-75.484375c41.6875 0 75.484375 33.792969 75.484375 75.484375s-33.796875 75.484375-75.484375 75.484375zm78.46875-136.3125c-9.742188 0-17.640625-7.898437-17.640625-17.640625s7.898437-17.640625 17.640625-17.640625 17.640625 7.898437 17.640625 17.640625c-.003906 9.742188-7.898437 17.640625-17.640625 17.640625zm0 0" />
  <path
     id="path78"
     d="m256 0c-141.363281 0-256 114.636719-256 256s114.636719 256 256 256 256-114.636719 256-256-114.636719-256-256-256zm146.113281 316.605469c-.710937 15.648437-3.199219 26.332031-6.832031 35.683593-7.636719 19.746094-23.246094 35.355469-42.992188 42.992188-9.347656 3.632812-20.035156 6.117188-35.679687 6.832031-15.675781.714844-20.683594.886719-60.605469.886719-39.925781 0-44.929687-.171875-60.609375-.886719-15.644531-.714843-26.332031-3.199219-35.679687-6.832031-9.8125-3.691406-18.695313-9.476562-26.039063-16.957031-7.476562-7.339844-13.261719-16.226563-16.953125-26.035157-3.632812-9.347656-6.121094-20.035156-6.832031-35.679687-.722656-15.679687-.890625-20.6875-.890625-60.609375s.167969-44.929688.886719-60.605469c.710937-15.648437 3.195312-26.332031 6.828125-35.683593 3.691406-9.808594 9.480468-18.695313 16.960937-26.035157 7.339844-7.480469 16.226563-13.265625 26.035157-16.957031 9.351562-3.632812 20.035156-6.117188 35.683593-6.832031 15.675781-.714844 20.683594-.886719 60.605469-.886719s44.929688.171875 60.605469.890625c15.648437.710937 26.332031 3.195313 35.683593 6.824219 9.808594 3.691406 18.695313 9.480468 26.039063 16.960937 7.476563 7.34375 13.265625 16.226563 16.953125 26.035157 3.636719 9.351562 6.121094 20.035156 6.835938 35.683593.714843 15.675781.882812 20.683594.882812 60.605469s-.167969 44.929688-.886719 60.605469zm0 0" />
  <path
     transform="scale(0.74999998)"
     id="path88"
     d="m 323.34403,439.85916 c -39.81093,-7.19275 -71.01441,-37.82465 -80.32836,-78.85691 -1.94154,-8.55337 -1.94154,-30.78447 0,-39.33783 8.22819,-36.249 33.07446,-64.16658 67.18884,-75.49422 18.94989,-6.29229 43.25484,-6.29518 62.25765,-0.007 34.05877,11.26958 58.96057,39.25231 67.18884,75.50163 1.94153,8.55336 1.94153,30.78446 0,39.33783 -9.39429,41.38619 -40.694,71.87912 -80.99471,78.90698 -9.15466,1.59644 -26.33388,1.57208 -35.31226,-0.0501 z m 39.22269,-36.2988 c 12.39625,-4.3587 24.46762,-13.27245 32.33885,-23.8797 3.55712,-4.79355 7.80354,-13.79058 9.82868,-20.82429 2.71479,-9.42906 2.69857,-25.67082 -0.0351,-35.17411 -6.08107,-21.13994 -21.65154,-37.49605 -42.71721,-44.87262 -6.33134,-2.21705 -7.59016,-2.36131 -20.64856,-2.36638 -13.437,-0.005 -14.15338,0.0831 -21.23339,2.617 -12.47753,4.46569 -24.49722,13.3584 -32.33885,23.92575 -3.55711,4.79355 -7.80353,13.79057 -9.82867,20.82429 -2.69745,9.36883 -2.69745,25.67723 0,35.04607 2.02679,7.03944 6.2751,16.03788 9.8315,20.82429 6.56903,8.84097 17.8223,17.94811 27.1821,21.99813 9.23484,3.99595 15.11624,4.98334 28.07291,4.71295 11.10558,-0.23176 12.88911,-0.49009 19.54779,-2.83138 z"
     style="fill:#ffffff;stroke-width:0.842798" />
  <path
     transform="scale(0.74999998)"
     id="path90"
     d="m 281.91605,536.46536 c -26.81649,-0.71696 -37.24425,-1.62901 -50.09874,-4.38183 -43.56912,-9.33039 -73.27891,-39.84995 -81.81662,-84.04662 -3.46553,-17.93981 -3.77518,-26.69168 -3.77518,-106.70358 0,-80.01189 0.30965,-88.76376 3.77518,-106.70358 8.36204,-43.28726 36.96826,-73.45531 79.15256,-83.47406 14.01933,-3.32958 23.36914,-4.02498 67.9707,-5.05537 51.68207,-1.19396 124.26537,-0.0339 141.13119,2.25573 28.93017,3.92733 49.89092,13.83894 67.05337,31.70719 17.88977,18.62547 26.64339,40.08725 30.02705,73.61906 1.57834,15.64131 1.57834,159.66076 0,175.30206 -3.54356,35.11644 -13.76188,58.56733 -33.58711,77.08192 -19.91847,18.60164 -42.8254,27.22765 -78.42636,29.53282 -17.22387,1.11525 -110.67953,1.68777 -141.40604,0.86626 z m 116.34712,-34.55978 c 31.8761,-0.86766 42.8808,-2.07791 54.74095,-6.0202 28.69997,-9.53979 43.87946,-30.95691 47.76623,-67.39454 1.57737,-14.78743 1.60307,-160.34575 0.0308,-174.38714 -2.67423,-23.8828 -9.02929,-39.32599 -21.18555,-51.48225 -12.81556,-12.81556 -29.55908,-19.06659 -56.18819,-20.97731 -35.7203,-2.56305 -157.56767,-1.67735 -177.33025,1.28901 -16.07506,2.41285 -28.95294,7.68554 -38.86269,15.91184 -10.16767,8.44042 -17.26631,19.59133 -21.27028,33.41247 -4.75491,16.41328 -5.57312,32.42705 -5.57312,109.07587 0,76.64883 0.81821,92.6626 5.57312,109.07588 4.00397,13.82113 11.10261,24.97204 21.27028,33.41246 9.99991,8.30115 22.79637,13.5043 39.28409,15.97328 16.7976,2.51537 96.26717,3.62073 151.74465,2.11063 z"
     style="fill:#ffffff;stroke-width:0.842798" />
  <path
     transform="scale(0.74999998)"
     id="path92"
     d="m 439.77707,258.87137 c -4.16467,-1.1706 -5.24744,-1.82933 -9.84242,-5.9879 -11.30002,-10.22681 -8.13355,-29.39607 6.10018,-36.92941 4.91262,-2.60005 14.69131,-2.60391 19.59584,-0.008 5.51888,2.92138 8.50055,5.87208 10.90987,10.79655 8.53533,17.44558 -8.07215,37.38221 -26.76347,32.12849 z"
     style="fill:#ffffff;stroke-width:0.842798" />
</svg>
