<?xml version="1.0" encoding="UTF-8" standalone="no"?>
<svg
   xmlns:dc="http://purl.org/dc/elements/1.1/"
   xmlns:cc="http://creativecommons.org/ns#"
   xmlns:rdf="http://www.w3.org/1999/02/22-rdf-syntax-ns#"
   xmlns:svg="http://www.w3.org/2000/svg"
   xmlns="http://www.w3.org/2000/svg"
   xmlns:sodipodi="http://sodipodi.sourceforge.net/DTD/sodipodi-0.dtd"
   xmlns:inkscape="http://www.inkscape.org/namespaces/inkscape"
   inkscape:version="1.0 (4035a4fb49, 2020-05-01)"
   sodipodi:docname="vk-bw.svg"
   xml:space="preserve"
   style="enable-background:new 0 0 97.75 97.75;"
   viewBox="0 0 97.75 97.75"
   height="97.75px"
   width="97.75px"
   y="0px"
   x="0px"
   id="Capa_1"
   version="1.1"><metadata
   id="metadata174"><rdf:RDF><cc:Work
       rdf:about=""><dc:format>image/svg+xml</dc:format><dc:type
         rdf:resource="http://purl.org/dc/dcmitype/StillImage" /></cc:Work></rdf:RDF></metadata><defs
   id="defs172" /><sodipodi:namedview
   inkscape:current-layer="Capa_1"
   inkscape:window-maximized="1"
   inkscape:window-y="-10"
   inkscape:window-x="-10"
   inkscape:cy="48.452623"
   inkscape:cx="48.875"
   inkscape:zoom="8.286445"
   showgrid="false"
   id="namedview170"
   inkscape:window-height="989"
   inkscape:window-width="1920"
   inkscape:pageshadow="2"
   inkscape:pageopacity="0"
   guidetolerance="10"
   gridtolerance="10"
   objecttolerance="10"
   borderopacity="1"
   bordercolor="#666666"
   pagecolor="#ffffff" />
<g
   id="g137">
	<path
   id="path135"
   d="M48.875,0C21.883,0,0,21.882,0,48.875S21.883,97.75,48.875,97.75S97.75,75.868,97.75,48.875S75.867,0,48.875,0z    M73.667,54.161c2.278,2.225,4.688,4.319,6.733,6.774c0.906,1.086,1.76,2.209,2.41,3.472c0.928,1.801,0.09,3.776-1.522,3.883   l-10.013-0.002c-2.586,0.214-4.644-0.829-6.379-2.597c-1.385-1.409-2.67-2.914-4.004-4.371c-0.545-0.598-1.119-1.161-1.803-1.604   c-1.365-0.888-2.551-0.616-3.333,0.81c-0.797,1.451-0.979,3.059-1.055,4.674c-0.109,2.361-0.821,2.978-3.19,3.089   c-5.062,0.237-9.865-0.531-14.329-3.083c-3.938-2.251-6.986-5.428-9.642-9.025c-5.172-7.012-9.133-14.708-12.692-22.625   c-0.801-1.783-0.215-2.737,1.752-2.774c3.268-0.063,6.536-0.055,9.804-0.003c1.33,0.021,2.21,0.782,2.721,2.037   c1.766,4.345,3.931,8.479,6.644,12.313c0.723,1.021,1.461,2.039,2.512,2.76c1.16,0.796,2.044,0.533,2.591-0.762   c0.35-0.823,0.501-1.703,0.577-2.585c0.26-3.021,0.291-6.041-0.159-9.05c-0.28-1.883-1.339-3.099-3.216-3.455   c-0.956-0.181-0.816-0.535-0.351-1.081c0.807-0.944,1.563-1.528,3.074-1.528l11.313-0.002c1.783,0.35,2.183,1.15,2.425,2.946   l0.01,12.572c-0.021,0.695,0.349,2.755,1.597,3.21c1,0.33,1.66-0.472,2.258-1.105c2.713-2.879,4.646-6.277,6.377-9.794   c0.764-1.551,1.423-3.156,2.063-4.764c0.476-1.189,1.216-1.774,2.558-1.754l10.894,0.013c0.321,0,0.647,0.003,0.965,0.058   c1.836,0.314,2.339,1.104,1.771,2.895c-0.894,2.814-2.631,5.158-4.329,7.508c-1.82,2.516-3.761,4.944-5.563,7.471   C71.48,50.992,71.611,52.155,73.667,54.161z" />
</g>
<g
   id="g139">
</g>
<g
   id="g141">
</g>
<g
   id="g143">
</g>
<g
   id="g145">
</g>
<g
   id="g147">
</g>
<g
   id="g149">
</g>
<g
   id="g151">
</g>
<g
   id="g153">
</g>
<g
   id="g155">
</g>
<g
   id="g157">
</g>
<g
   id="g159">
</g>
<g
   id="g161">
</g>
<g
   id="g163">
</g>
<g
   id="g165">
</g>
<g
   id="g167">
</g>
<path
   id="path176"
   d="M 46.588211,68.111935 C 38.839894,67.253441 32.860597,63.376462 27.156403,55.512346 23.96411,51.111274 21.089894,46.255197 18.049391,40.125772 15.584622,35.156981 14.60216,32.915551 14.60216,32.261113 c 0,-0.653877 0.375695,-1.111625 1.070839,-1.304714 0.592326,-0.16453 10.909054,-0.162768 11.502165,0.002 0.244619,0.06794 0.69446,0.352743 0.999647,0.632892 0.481988,0.442447 0.679041,0.79473 1.499973,2.681585 1.621064,3.725903 3.204266,6.677204 5.114245,9.533641 2.266345,3.389395 3.465997,4.558377 4.677968,4.558377 1.376129,0 1.999837,-1.724575 2.146198,-5.934319 0.132379,-3.807559 -0.08791,-6.808535 -0.600312,-8.178055 -0.413281,-1.104595 -1.609129,-2.04214 -2.904185,-2.276883 -0.915729,-0.165986 -0.871129,-0.497906 0.19823,-1.475239 1.112503,-1.016766 0.936256,-0.994439 7.844122,-0.99367 3.784266,4.21e-4 6.210356,0.04726 6.491422,0.125317 0.58335,0.162012 1.12464,0.625163 1.457187,1.246829 0.26353,0.492647 0.266944,0.57069 0.335902,7.678107 0.05194,5.353146 0.109118,7.303242 0.2247,7.663118 0.3773,1.174751 0.970133,1.891932 1.695619,2.051275 0.789017,0.173298 1.732179,-0.600961 3.674797,-3.016707 1.873983,-2.330394 4.318935,-6.644698 5.928903,-10.461997 1.072907,-2.543906 1.252073,-2.911824 1.59732,-3.280105 0.643728,-0.686674 0.560998,-0.67904 7.358987,-0.67904 6.883505,0 7.192847,0.02844 7.88977,0.725362 0.440906,0.440907 0.458754,1.184015 0.0567,2.360985 -0.879941,2.575939 -1.863523,4.107941 -7.326918,11.412205 -1.570858,2.100153 -3.000087,4.112748 -3.176066,4.472436 -0.494164,1.010034 -0.533633,1.72849 -0.142099,2.586566 0.278475,0.610299 0.834016,1.214405 4.035639,4.388433 2.04199,2.024391 4.062146,4.131379 4.489234,4.682195 1.157355,1.492643 2.120832,3.080956 2.28563,3.767913 0.262745,1.09524 -0.06405,2.09366 -0.884278,2.701605 -0.333167,0.246941 -0.470202,0.253208 -6.275308,0.286984 -6.639272,0.03863 -7.012671,0.0048 -8.497218,-0.768961 -0.846514,-0.441232 -2.257621,-1.537852 -2.785211,-2.164483 -0.926823,-1.100807 -4.249184,-4.645176 -4.774672,-5.093725 -0.810619,-0.691931 -1.476229,-0.997947 -2.170617,-0.997947 -0.692546,0 -1.17335,0.231673 -1.565051,0.754117 -0.806203,1.075298 -1.222111,2.497772 -1.409828,4.821844 -0.174299,2.157957 -0.415115,2.683348 -1.446151,3.15507 -0.48612,0.222411 -0.808755,0.251205 -3.077314,0.274642 -1.393843,0.0144 -2.993107,-0.02466 -3.553919,-0.08679 z"
   style="fill:#ffffff;stroke-width:0.120679" /></svg>
